<svg xmlns="http://www.w3.org/2000/svg" xmlns:xlink="http://www.w3.org/1999/xlink" width="238" height="238" viewBox="0 0 238 238">
    <defs>
        <ellipse id="a" cx="119.063" cy="118.995" rx="118.469" ry="118.402"/>
    </defs>
    <g fill="none" fill-rule="evenodd">
        <mask id="b" fill="#fff">
            <use xlink:href="#a"/>
        </mask>
        <use fill="#FF9200" opacity=".6" xlink:href="#a"/>
        <g mask="url(#b)">
            <path fill="#41403E" d="M182.078 116.679c4.16 1.557 10.918-3.327 10.918-3.327-25.468-9.557-10.918-50.67-30.12-73.728-19.204-23.06-42.542-7.054-42.542-7.054s-23.34-16.006-42.542 7.054c-19.204 23.059-4.652 64.17-30.12 73.728 0 0 6.758 4.884 10.916 3.327 0 0 19.487 55.374-18.846 76.49 0 0 47.22 48.636 80.592 37.213 33.371 11.423 80.592-37.212 80.592-37.212-38.332-21.117-18.848-76.491-18.848-76.491"/>
            <path fill="#FF9200" d="M202.497 190.436c-1.526-7.324-25.96-21.052-33.904-22.882-7.941-1.831-12.522 10.237-12.522 10.237l-35.737 37.969-35.737-37.97s-4.58-12.067-12.524-10.236c-7.942 1.83-32.376 15.558-33.902 22.882-1.527 7.323-10.995 55.527-1.527 74.139h167.38c9.468-18.612 0-66.816-1.527-74.139"/>
            <path fill="#EDD0A8" d="M137.773 139.82h-34.879c0 35.116-21.352 37.498-21.352 37.498 0 33.255 38.791 38.442 38.791 38.442s38.792-5.187 38.792-38.442c0 0-21.352-2.382-21.352-37.498"/>
            <path fill="#FCE5C5" d="M120.333 152.637c-14.76 0-26.027-12.416-31.076-21.728-5.05-9.311-8.543-62.856 2.334-77.6 10.65-14.439 28.742-12.804 28.742-12.804s18.093-1.635 28.746 12.804c10.876 14.744 7.381 68.289 2.331 77.6-5.05 9.312-16.316 21.728-31.077 21.728"/>
            <path fill="#41403E" d="M84.785 104.128c44.878-6.417 55.306-38.061 55.306-38.061s1.304 17.303 16.114 28.913c0 0 10.604-30.148-6.217-46.704-16.824-16.558-44.281-16.063-60.855 1.73-16.575 17.79-4.348 54.122-4.348 54.122"/>
            <path fill="#006F5C" d="M67.02 219.485s-10.087 34.32 18.564 45.09h-22.92s-3.209-27.692 4.355-45.09M173.649 219.485s10.086 34.32-18.566 45.09h22.92s3.21-27.692-4.354-45.09"/>
        </g>
    </g>
</svg>
